<svg xmlns="http://www.w3.org/2000/svg" width="12" height="18" viewBox="0 0 12 18"><defs><mask id="madab" width="2" height="2" x="-1" y="-1"><path fill="#fff" d="M1 0h10v16H1z"/><path d="M2.947 16.002L1.01 14.075 7.12 7.999 1.01 1.923 2.946-.004 10.997 8z"/></mask><filter id="madaa" width="34" height="41" x="-11" y="-12" filterUnits="userSpaceOnUse"><feOffset dy="1" in="SourceGraphic" result="FeOffset1023Out"/><feGaussianBlur in="FeOffset1023Out" result="FeGaussianBlur1024Out" stdDeviation="0.8 0.8"/></filter></defs><g><g><g filter="url(#madaa)"><path fill="none" d="M2.947 16.002L1.01 14.075 7.12 7.999 1.01 1.923 2.946-.004 10.997 8z" mask="url(&quot;#madab&quot;)"/><path fill="#030303" fill-opacity=".14" d="M2.947 16.002L1.01 14.075 7.12 7.999 1.01 1.923 2.946-.004 10.997 8z"/></g><path fill="#fff" d="M2.947 16.002L1.01 14.075 7.12 7.999 1.01 1.923 2.946-.004 10.997 8z"/></g></g></svg>