<svg xmlns="http://www.w3.org/2000/svg" width="15" height="14" viewBox="0 0 15 14"><g><g><path fill="#fff" d="M13.643 5.854l-.982.987-6.599 6.63c-.025.025-.075.05-.1.076-.026 0-.026.025-.051.025-.025 0-.05.025-.076.025 0 .026-.025.026-.05.026s-.05.025-.075.025h-.126l-4.106.101h-.025a.701.701 0 0 1-.504-.202.709.709 0 0 1-.201-.506l.1-4.1v-.05-.051s.026-.025.026-.05c0-.026.025-.051.025-.077 0-.025.025-.025.025-.05.025 0 .025-.026.05-.05l.101-.102L8.707.868c.755-.835 2.266-.835 3.123.026l1.763 1.822c.856.86.856 2.277.05 3.138zm-2.544.531L8.102 3.374 2.486 9.017l2.997 3.011zm-8.991 6.023l1.738-.05-1.688-1.696zm10.477-8.705L10.772 1.88a.833.833 0 0 0-1.184 0l-.478.48 2.971 3.037.504-.506a.843.843 0 0 0 0-1.19z"/></g></g></svg>